<svg aria-hidden="true" style="position: absolute; width: 0; height: 0; overflow: hidden;" version="1.1" xmlns="http://www.w3.org/2000/svg" xmlns:xlink="http://www.w3.org/1999/xlink">
<defs>
<symbol id="icon-eur" viewBox="0 0 16 28">
<title>eur</title>
<path d="M15.25 20.422l0.547 2.484c0.063 0.25-0.078 0.5-0.313 0.578-0.063 0.016-1.516 0.516-3.391 0.516-4.875 0-8.797-2.938-10.109-7.531h-1.484c-0.281 0-0.5-0.234-0.5-0.5v-1.766c0-0.266 0.219-0.5 0.5-0.5h1.031c-0.016-0.5-0.016-1.094 0.016-1.641h-1.047c-0.281 0-0.5-0.219-0.5-0.5v-1.781c0-0.281 0.219-0.5 0.5-0.5h1.531c1.391-4.375 5.391-7.281 10.063-7.281 1.625 0 2.969 0.344 3.031 0.359 0.125 0.031 0.234 0.125 0.313 0.234 0.063 0.109 0.078 0.25 0.047 0.375l-0.672 2.484c-0.063 0.266-0.328 0.422-0.594 0.344-0.016 0-1.078-0.266-2.188-0.266-2.625 0-4.828 1.422-5.875 3.75h7.313c0.156 0 0.297 0.063 0.391 0.187 0.094 0.109 0.141 0.266 0.109 0.406l-0.375 1.781c-0.047 0.234-0.25 0.406-0.5 0.406h-7.625c-0.047 0.5-0.031 1.031 0 1.641h7.172c0.156 0 0.297 0.078 0.391 0.187 0.094 0.125 0.125 0.281 0.094 0.422l-0.375 1.75c-0.047 0.234-0.25 0.406-0.484 0.406h-6.047c1 2.438 3.25 3.969 5.906 3.969 1.359 0 2.469-0.375 2.484-0.375 0.125-0.047 0.281-0.031 0.406 0.031 0.125 0.078 0.203 0.203 0.234 0.328z"></path>
</symbol>
<symbol id="icon-hashtag" viewBox="0 0 28 28">
<title>hashtag</title>
<path d="M15.484 16l1-4h-3.969l-1 4h3.969zM27.484 8.125l-0.875 3.5c-0.063 0.219-0.25 0.375-0.484 0.375h-5.109l-1 4h4.859c0.156 0 0.297 0.078 0.391 0.187 0.094 0.125 0.141 0.281 0.094 0.438l-0.875 3.5c-0.047 0.219-0.25 0.375-0.484 0.375h-5.109l-1.266 5.125c-0.063 0.219-0.266 0.375-0.484 0.375h-3.5c-0.156 0-0.313-0.078-0.406-0.187-0.094-0.125-0.125-0.281-0.094-0.438l1.219-4.875h-3.969l-1.266 5.125c-0.063 0.219-0.266 0.375-0.484 0.375h-3.516c-0.141 0-0.297-0.078-0.391-0.187-0.094-0.125-0.125-0.281-0.094-0.438l1.219-4.875h-4.859c-0.156 0-0.297-0.078-0.391-0.187-0.094-0.125-0.125-0.281-0.094-0.438l0.875-3.5c0.063-0.219 0.25-0.375 0.484-0.375h5.109l1-4h-4.859c-0.156 0-0.297-0.078-0.391-0.187-0.094-0.125-0.141-0.281-0.094-0.438l0.875-3.5c0.047-0.219 0.25-0.375 0.484-0.375h5.109l1.266-5.125c0.063-0.219 0.266-0.375 0.5-0.375h3.5c0.141 0 0.297 0.078 0.391 0.187 0.094 0.125 0.125 0.281 0.094 0.438l-1.219 4.875h3.969l1.266-5.125c0.063-0.219 0.266-0.375 0.5-0.375h3.5c0.141 0 0.297 0.078 0.391 0.187 0.094 0.125 0.125 0.281 0.094 0.438l-1.219 4.875h4.859c0.156 0 0.297 0.078 0.391 0.187 0.094 0.125 0.125 0.281 0.094 0.438z"></path>
</symbol>
</defs>
</svg>
